<svg version="1.1" xmlns="http://www.w3.org/2000/svg">
  <defs>
    <symbol id="favorite_border" viewBox="0 0 24 24" fill="none" xmlns="http://www.w3.org/2000/svg">
      <path d="M16.5 3C14.76 3 13.09 3.81 12 5.09C10.91 3.81 9.24 3 7.5 3C4.42 3 2 5.42 2 8.5C2 12.28 5.4 15.36 10.55 20.04L12 21.35L13.45 20.03C18.6 15.36 22 12.28 22 8.5C22 5.42 19.58 3 16.5 3ZM12.1 18.55L12 18.65L11.9 18.55C7.14 14.24 4 11.39 4 8.5C4 6.5 5.5 5 7.5 5C9.04 5 10.54 5.99 11.07 7.36H12.94C13.46 5.99 14.96 5 16.5 5C18.5 5 20 6.5 20 8.5C20 11.39 16.86 14.24 12.1 18.55Z" fill="currentColor"/>
    </symbol>

    <symbol id="add" width="24" height="24" viewBox="0 0 24 24" fill="none" xmlns="http://www.w3.org/2000/svg">
      <path d="M19 13H13V19H11V13H5V11H11V5H13V11H19V13Z" fill="currentColor"/>
    </symbol>

    <symbol id="close" width="24" height="24" viewBox="0 0 24 24" fill="none" xmlns="http://www.w3.org/2000/svg">
      <path d="M19 6.41L17.59 5L12 10.59L6.41 5L5 6.41L10.59 12L5 17.59L6.41 19L12 13.41L17.59 19L19 17.59L13.41 12L19 6.41Z" fill="currentColor"/>
    </symbol>

    <symbol id="info" width="24" height="24" viewBox="0 0 24 24" fill="none" xmlns="http://www.w3.org/2000/svg">
      <path d="M11 7H13V9H11V7ZM11 11H13V17H11V11ZM12 2C6.48 2 2 6.48 2 12C2 17.52 6.48 22 12 22C17.52 22 22 17.52 22 12C22 6.48 17.52 2 12 2ZM12 20C7.59 20 4 16.41 4 12C4 7.59 7.59 4 12 4C16.41 4 20 7.59 20 12C20 16.41 16.41 20 12 20Z" fill="currentColor"/>
    </symbol>

    <symbol id="warning" width="24" height="24" viewBox="0 0 24 24" fill="none" xmlns="http://www.w3.org/2000/svg">
      <path d="M1 21H23L12 2L1 21ZM13 18H11V16H13V18ZM13 14H11V10H13V14Z" fill="currentColor"/>
    </symbol>

    <symbol id="check" width="24" height="24" viewBox="0 0 24 24" fill="none" xmlns="http://www.w3.org/2000/svg">
      <path d="M9.00016 16.17L4.83016 12L3.41016 13.41L9.00016 19L21.0002 7L19.5902 5.59L9.00016 16.17Z" fill="currentColor"/>
    </symbol>
  </defs>
</svg>
