<svg version="1.1" xmlns="http://www.w3.org/2000/svg">
  <defs>
    <symbol id="favorite_border" viewBox="0 0 24 24" fill="none" xmlns="http://www.w3.org/2000/svg">
      <path d="M16.5 3C14.76 3 13.09 3.81 12 5.09C10.91 3.81 9.24 3 7.5 3C4.42 3 2 5.42 2 8.5C2 12.28 5.4 15.36 10.55 20.04L12 21.35L13.45 20.03C18.6 15.36 22 12.28 22 8.5C22 5.42 19.58 3 16.5 3ZM12.1 18.55L12 18.65L11.9 18.55C7.14 14.24 4 11.39 4 8.5C4 6.5 5.5 5 7.5 5C9.04 5 10.54 5.99 11.07 7.36H12.94C13.46 5.99 14.96 5 16.5 5C18.5 5 20 6.5 20 8.5C20 11.39 16.86 14.24 12.1 18.55Z" fill="currentColor"/>
    </symbol>

    <symbol id="add" width="24" height="24" viewBox="0 0 24 24" fill="none" xmlns="http://www.w3.org/2000/svg">
      <path d="M19 13H13V19H11V13H5V11H11V5H13V11H19V13Z" fill="currentColor"/>
    </symbol>

    <symbol id="close" width="24" height="24" viewBox="0 0 24 24" fill="none" xmlns="http://www.w3.org/2000/svg">
      <path d="M19 6.41L17.59 5L12 10.59L6.41 5L5 6.41L10.59 12L5 17.59L6.41 19L12 13.41L17.59 19L19 17.59L13.41 12L19 6.41Z" fill="currentColor"/>
    </symbol>

    <symbol id="info" width="24" height="24" viewBox="0 0 24 24" fill="none" xmlns="http://www.w3.org/2000/svg">
      <path d="M11 7H13V9H11V7ZM11 11H13V17H11V11ZM12 2C6.48 2 2 6.48 2 12C2 17.52 6.48 22 12 22C17.52 22 22 17.52 22 12C22 6.48 17.52 2 12 2ZM12 20C7.59 20 4 16.41 4 12C4 7.59 7.59 4 12 4C16.41 4 20 7.59 20 12C20 16.41 16.41 20 12 20Z" fill="currentColor"/>
    </symbol>

    <symbol id="warning" width="24" height="24" viewBox="0 0 24 24" fill="none" xmlns="http://www.w3.org/2000/svg">
      <path d="M1 21H23L12 2L1 21ZM13 18H11V16H13V18ZM13 14H11V10H13V14Z" fill="currentColor"/>
    </symbol>

    <symbol id="check" width="24" height="24" viewBox="0 0 24 24" fill="none" xmlns="http://www.w3.org/2000/svg">
      <path d="M9.00016 16.17L4.83016 12L3.41016 13.41L9.00016 19L21.0002 7L19.5902 5.59L9.00016 16.17Z" fill="currentColor"/>
    </symbol>
    <symbol id="arrow_drop_down" viewBox="0 0 24 24" fill="none" xmlns="http://www.w3.org/2000/svg">
      <path d="M7 10L12 15L17 10H7Z" fill="currentColor"/>
    </symbol>

    <symbol id="visibility" viewBox="0 0 24 24" fill="none" xmlns="http://www.w3.org/2000/svg">
      <path d="M12 6C15.79 6 19.17 8.13 20.82 11.5C19.17 14.87 15.79 17 12 17C8.21 17 4.83 14.87 3.18 11.5C4.83 8.13 8.21 6 12 6ZM12 4C7 4 2.73 7.11 1 11.5C2.73 15.89 7 19 12 19C17 19 21.27 15.89 23 11.5C21.27 7.11 17 4 12 4ZM12 9C13.38 9 14.5 10.12 14.5 11.5C14.5 12.88 13.38 14 12 14C10.62 14 9.5 12.88 9.5 11.5C9.5 10.12 10.62 9 12 9ZM12 7C9.52 7 7.5 9.02 7.5 11.5C7.5 13.98 9.52 16 12 16C14.48 16 16.5 13.98 16.5 11.5C16.5 9.02 14.48 7 12 7Z" fill="currentColor" />
    </symbol>

    <symbol id="visibility_off" viewBox="0 0 24 24" fill="none" xmlns="http://www.w3.org/2000/svg">
      <path d="M12 6C15.79 6 19.17 8.13 20.82 11.5C20.23 12.72 19.4 13.77 18.41 14.62L19.82 16.03C21.21 14.8 22.31 13.26 23 11.5C21.27 7.11 17 4 12 4C10.73 4 9.51 4.2 8.36 4.57L10.01 6.22C10.66 6.09 11.32 6 12 6ZM10.93 7.14L13 9.21C13.57 9.46 14.03 9.92 14.28 10.49L16.35 12.56C16.43 12.22 16.49 11.86 16.49 11.49C16.5 9.01 14.48 7 12 7C11.63 7 11.28 7.05 10.93 7.14ZM2.01 3.87L4.69 6.55C3.06 7.83 1.77 9.53 1 11.5C2.73 15.89 7 19 12 19C13.52 19 14.98 18.71 16.32 18.18L19.74 21.6L21.15 20.19L3.42 2.45L2.01 3.87ZM9.51 11.37L12.12 13.98C12.08 13.99 12.04 14 12 14C10.62 14 9.5 12.88 9.5 11.5C9.5 11.45 9.51 11.42 9.51 11.37ZM6.11 7.97L7.86 9.72C7.63 10.27 7.5 10.87 7.5 11.5C7.5 13.98 9.52 16 12 16C12.63 16 13.23 15.87 13.77 15.64L14.75 16.62C13.87 16.86 12.95 17 12 17C8.21 17 4.83 14.87 3.18 11.5C3.88 10.07 4.9 8.89 6.11 7.97Z" fill="currentColor" />
    </symbol>

    <symbol id="search" viewBox="0 0 24 24" fill="none" xmlns="http://www.w3.org/2000/svg">
      <path d="M15.5 14H14.71L14.43 13.73C15.41 12.59 16 11.11 16 9.5C16 5.91 13.09 3 9.5 3C5.91 3 3 5.91 3 9.5C3 13.09 5.91 16 9.5 16C11.11 16 12.59 15.41 13.73 14.43L14 14.71V15.5L19 20.49L20.49 19L15.5 14ZM9.5 14C7.01 14 5 11.99 5 9.5C5 7.01 7.01 5 9.5 5C11.99 5 14 7.01 14 9.5C14 11.99 11.99 14 9.5 14Z" fill="currentColor" />
    </symbol>
  </defs>
</svg>
