<svg version="1.1" xmlns="http://www.w3.org/2000/svg">
  <defs>
    <symbol id="cat-logo" viewBox="0 0 24 32" fill="none" xmlns="http://www.w3.org/2000/svg">
      <path d="M14.9348 0C13.5511 2.98901 10.9649 5 8.00274 5C5.04059 5 2.45434 2.98901 1.07063 0C0.389711 1.47087 0 3.17856 0 5C0 10.5228 3.58295 13 8.00274 13C5.33516 15.3333 0 19.2 0 32C0 32 3.85281 30 7.00239 30C10.152 30 16.0055 32 16.0055 32C15.7045 31.5111 15.3696 30.9416 15.0123 30.3045C16.2095 30.7239 17.6958 31 19.5067 31C21.1597 31 22.3189 30.7804 23.0429 30.4047C23.4087 30.2149 23.7009 29.9656 23.8643 29.647C24.035 29.3139 24.0373 28.9578 23.9123 28.633C23.6795 28.0278 23.0302 27.566 22.283 27.289C21.5079 27.0017 20.5201 26.8695 19.4446 27.0039C19.1705 27.0381 18.9761 27.288 19.0104 27.562C19.0446 27.836 19.2946 28.0304 19.5687 27.9961C20.4939 27.8805 21.3192 27.9983 21.9352 28.2266C22.5792 28.4653 22.8989 28.7847 22.9787 28.992C23.01 29.0735 23.0045 29.1314 22.974 29.1909C22.9361 29.2648 22.8337 29.3866 22.5821 29.5171C22.0713 29.7821 21.1048 30 19.5067 30C17.1496 30 15.4385 29.509 14.2426 28.89C12 26 8.5 18.5 8.00274 13C12.4225 13 16.0055 10.5228 16.0055 5C16.0055 3.17856 15.6158 1.47087 14.9348 0Z" fill="black"/>
    </symbol>
  </defs>
</svg>
