<svg viewBox="0 0 115 24" fill="none" xmlns="http://www.w3.org/2000/svg">
    <path d="M10.0724 23.1117C10.3304 23.3993 9.35332 23.681 8.91485 23.681H8.03288C7.5944 23.681 7.33219 23.2768 7.59026 22.9892C7.59026 22.9892 7.799 22.5043 8.28143 22.5043C8.48478 22.5043 8.9775 22.5945 9.13938 22.1925C8.95076 19.538 8.90568 18.6767 6.54121 16.0466L9.57791 14.5774C11.1271 16.5067 10.2604 22.0303 10.0724 23.1117ZM23.9613 22.6745C24.0363 21.6079 23.3328 20.2228 22.8003 19.4659C20.9387 16.8191 21.9781 15.2542 20.6146 12.5142L16.3151 13.7345C15.3925 16.4077 19.3257 19.0096 20.6081 19.5643C22.5164 20.3898 23.0343 22.1936 23.0343 22.1936L23.0345 22.194C22.8992 22.1676 22.7711 22.153 22.6687 22.153C22.3032 22.153 22.1451 22.6094 22.1451 22.6094C21.9495 22.88 22.1482 23.2604 22.4804 23.2604H23.588C23.8945 23.2604 24.0865 22.9371 23.9613 22.6745ZM4.53398 6.96731C4.73514 5.29975 3.01173 4.30511 2.76394 4.44104C2.51616 4.57697 1.979 5.46718 2.16082 6.59272C2.16087 6.59278 4.33282 8.63488 4.53398 6.96731Z" fill="#2284E6"/>
    <path d="M21.3894 12.0817C21.2892 11.4116 21.0617 10.904 20.7486 10.52C20.7845 10.4443 20.8183 10.3676 20.8498 10.29C20.9707 9.99165 21.0744 9.64399 21.1374 9.25572C21.1994 8.86769 21.2196 8.43833 21.1698 7.98747C21.119 7.53761 20.9981 7.06553 20.7844 6.61391C20.5734 6.16148 20.2702 5.73364 19.9012 5.36583C19.7165 5.18215 19.5159 5.0132 19.3048 4.85951C19.1994 4.78237 19.0906 4.71043 18.9805 4.64059L18.8132 4.54008L18.6493 4.44798L18.4911 4.35973C18.4387 4.33034 18.3931 4.30229 18.3438 4.27359C18.2954 4.24578 18.2467 4.21527 18.198 4.18482C18.1493 4.15461 18.1004 4.12463 18.0532 4.09284C17.8619 3.96848 17.6775 3.83758 17.5041 3.69884C17.1576 3.42219 16.8491 3.11696 16.6182 2.79111C16.3857 2.46788 16.2331 2.11981 16.2007 1.80839C16.1826 1.65288 16.1989 1.51035 16.2365 1.38979C16.2758 1.26952 16.3397 1.17374 16.4179 1.10016C16.5755 0.953714 16.8021 0.900359 17.0198 0.910527C17.2386 0.918942 17.4427 0.987492 17.6049 1.05557C17.7339 1.11203 17.8581 1.17853 17.9764 1.25444C18.0186 1.28021 18.0497 1.30341 18.0713 1.31732L18.1038 1.33918L18.1047 1.33976C18.1513 1.37122 18.2038 1.39328 18.2591 1.4047C18.3144 1.41611 18.3715 1.41666 18.427 1.4063C18.4825 1.39594 18.5354 1.37488 18.5827 1.34432C18.6299 1.31376 18.6706 1.27431 18.7025 1.2282C18.833 1.03915 18.7875 0.782487 18.6031 0.647258L18.5632 0.618038C18.5365 0.599162 18.4986 0.569358 18.4455 0.534002C18.2913 0.427401 18.1287 0.33328 17.9592 0.252558C17.7343 0.150231 17.4431 0.0346967 17.0598 0.0053017C16.8691 -0.00726276 16.6554 -0.000483841 16.4295 0.0601762C16.1829 0.123927 15.9548 0.2439 15.7637 0.410462C15.5602 0.588526 15.3969 0.829881 15.3039 1.09409C15.2114 1.35811 15.1804 1.64061 15.2026 1.91089C15.2229 2.18246 15.29 2.44514 15.3869 2.69182C15.483 2.93983 15.61 3.17195 15.7548 3.39116C16.045 3.83021 16.4099 4.21223 16.8062 4.55329C17.0046 4.72399 17.2123 4.88294 17.4255 5.03296C17.4784 5.07135 17.5324 5.10741 17.5864 5.14376C17.6402 5.18016 17.6939 5.21663 17.7516 5.25269L17.9194 5.35887L18.074 5.45337L18.2187 5.54103L18.3499 5.626C18.4353 5.68467 18.5192 5.74422 18.5991 5.80716C18.7591 5.93257 18.9069 6.06675 19.0397 6.20864C19.3045 6.49324 19.5088 6.80793 19.6466 7.13537C19.7865 7.46199 19.8594 7.80093 19.8843 8.12714C19.9079 8.45394 19.8816 8.76793 19.8255 9.05037C19.7802 9.27728 19.7124 9.49928 19.6234 9.71319C18.9443 9.43899 18.1576 9.36974 17.4134 9.36594C15.7128 9.35735 8.12626 10.6964 6.30635 7.51546C6.30505 7.51324 6.30375 7.51119 6.3025 7.50891C6.23645 7.36995 6.15867 7.23672 6.06999 7.11065C6.47314 5.90966 5.747 4.57146 5.50969 4.55843C5.24534 4.54388 4.41213 4.95313 3.93336 5.86122C3.82473 5.84936 3.71553 5.84335 3.60624 5.84322C1.96903 5.84322 0.671363 7.147 0.671363 8.53517C0.671363 8.53791 0.57025 9.34958 0.325011 9.68847C0.200469 9.86057 0.134145 10.0689 0.147753 10.2917C-0.0187962 10.9813 0.780463 11.6776 2.09617 11.3716C2.19474 11.3619 2.31514 11.3349 2.46098 11.2874C4.1957 10.7221 4.2128 12.7854 4.83965 14.5797L4.83107 14.5774C4.84143 14.6 4.85184 14.6222 4.86225 14.6442C5.01685 15.0748 5.2086 15.4876 5.46982 15.8424C5.88208 16.7917 6.04443 18.075 5.33415 22.0435L5.33392 22.0446C5.22192 22.7013 4.67783 22.8234 4.4933 22.8234C4.01087 22.8234 3.80213 23.3083 3.80213 23.3083C3.54406 23.5959 3.80628 24 4.24475 24H4.97573C5.35581 24 6.16725 23.7603 6.19559 23.4537C6.62265 22.7731 8.43824 19.7494 8.85926 16.8927C11.7559 16.6615 12.8131 16.551 14.2176 16.1528C15.0886 15.9059 15.3321 15.8409 15.8172 16.7198C16.1132 17.2562 16.5951 17.8335 17.0105 18.2836C17.258 18.5518 17.4264 18.8819 17.4972 19.238C17.568 19.5941 17.5386 19.9626 17.4121 20.3033C17.115 21.1022 16.763 21.88 16.3584 22.6314C16.3483 22.6504 16.3394 22.67 16.3317 22.6901C16.0114 22.6039 15.622 22.5715 15.3948 22.5715C14.9683 22.5715 14.7837 23.0565 14.7837 23.0565C14.5556 23.344 14.7874 23.7482 15.1751 23.7482H15.9984C16.1469 23.7482 16.3113 23.6801 16.4565 23.5835L16.4625 23.5956C16.4625 23.5956 19.6435 21.3343 19.8508 18.669C20.0016 16.7342 21.7754 14.6641 21.3894 12.0817Z" fill="#2284E6"/>
    <path d="M2.02794 8.21402C2.07239 8.21402 2.1164 8.22267 2.15747 8.23947C2.19853 8.25627 2.23585 8.2809 2.26728 8.31194C2.29871 8.34299 2.32364 8.37985 2.34065 8.42041C2.35766 8.46097 2.36642 8.50445 2.36642 8.54835V9.03147C2.36642 9.12014 2.33076 9.20518 2.26728 9.26788C2.2038 9.33058 2.11771 9.3658 2.02794 9.3658C1.93816 9.3658 1.85207 9.33058 1.78859 9.26788C1.72511 9.20518 1.68945 9.12014 1.68945 9.03147V8.54835C1.68947 8.45969 1.72514 8.37466 1.78861 8.31196C1.85208 8.24926 1.93817 8.21404 2.02794 8.21402Z" fill="#2284E6"/>
    <path d="M0.177532 10.0004C0.27119 10.1277 0.232614 10.2448 0.416736 10.1928C1.29374 9.9452 0.708182 10.6963 0.454542 10.6963C0.0378435 10.6963 -0.174204 10.0004 0.177532 10.0004ZM5.43694 7.37972C6.19502 6.45608 5.5432 5.21752 5.34281 5.20648C5.14242 5.19543 4.56449 5.52404 4.24299 6.26598C4.24299 6.26598 4.67886 8.30335 5.43694 7.37972Z" fill="#2284E6"/>
    <path d="M1.48484 10.4119C1.47138 10.4117 1.45848 10.4066 1.44868 10.3975C1.43888 10.3883 1.4329 10.3759 1.4319 10.3627C1.43091 10.3494 1.43498 10.3363 1.44331 10.3258C1.45164 10.3154 1.46363 10.3084 1.47691 10.3063C3.54171 9.99905 4.21998 10.2072 4.24778 10.2161C4.25449 10.2183 4.2607 10.2217 4.26606 10.2263C4.27142 10.2308 4.27582 10.2363 4.27901 10.2425C4.28221 10.2488 4.28413 10.2555 4.28467 10.2625C4.28521 10.2695 4.28435 10.2764 4.28216 10.2831C4.27996 10.2897 4.27647 10.2958 4.27187 10.3011C4.26728 10.3064 4.26167 10.3108 4.25538 10.3139C4.24908 10.3171 4.24222 10.319 4.23518 10.3195C4.22814 10.32 4.22106 10.3192 4.21436 10.317C4.20779 10.315 3.52408 10.109 1.49289 10.4113C1.49023 10.4117 1.48754 10.4119 1.48484 10.4119ZM4.14561 10.8071C4.14655 10.8002 4.1461 10.7932 4.14429 10.7864C4.14248 10.7797 4.13934 10.7734 4.13505 10.7678C4.13077 10.7623 4.12542 10.7576 4.11931 10.7541C4.1132 10.7506 4.10646 10.7483 4.09946 10.7474C4.0891 10.7461 3.05147 10.6099 1.80492 10.5394C1.79787 10.539 1.79081 10.54 1.78414 10.5423C1.77748 10.5446 1.77133 10.5482 1.76606 10.5528C1.7608 10.5575 1.7565 10.5631 1.75344 10.5694C1.75037 10.5757 1.74858 10.5825 1.74818 10.5895C1.74778 10.5964 1.74878 10.6034 1.7511 10.61C1.75343 10.6166 1.75705 10.6226 1.76176 10.6278C1.76646 10.6331 1.77215 10.6373 1.77851 10.6403C1.78487 10.6433 1.79178 10.6451 1.79883 10.6455C3.04106 10.7158 4.0749 10.8513 4.0852 10.8527C4.09933 10.8545 4.11363 10.8508 4.12495 10.8422C4.13628 10.8337 4.14371 10.821 4.14561 10.8071ZM3.82298 11.5718C3.83101 11.5602 3.83404 11.5459 3.83138 11.532C3.82873 11.5182 3.82062 11.506 3.80884 11.498C3.79884 11.4913 2.79375 10.825 1.29676 10.7404C1.2897 10.74 1.28264 10.7409 1.27598 10.7432C1.26931 10.7455 1.26317 10.7491 1.2579 10.7538C1.25263 10.7584 1.24834 10.764 1.24527 10.7703C1.2422 10.7766 1.24042 10.7834 1.24002 10.7904C1.23962 10.7973 1.24061 10.8043 1.24294 10.8109C1.24527 10.8175 1.24888 10.8236 1.25359 10.8288C1.25829 10.834 1.26398 10.8382 1.27035 10.8412C1.27671 10.8443 1.28361 10.846 1.29066 10.8464C2.75635 10.9293 3.73855 11.5793 3.74831 11.5858C3.7601 11.5937 3.77457 11.5967 3.78857 11.594C3.80256 11.5914 3.81494 11.5834 3.82298 11.5718Z" fill="#2284E6"/>
    <path d="M43.108 10.2898H40.983C40.9223 9.94129 40.8106 9.63258 40.6477 9.36364C40.4848 9.09091 40.2822 8.85985 40.0398 8.67045C39.7973 8.48106 39.5208 8.33901 39.2102 8.24432C38.9034 8.14583 38.572 8.09659 38.2159 8.09659C37.5833 8.09659 37.0227 8.25568 36.5341 8.57386C36.0455 8.88826 35.6629 9.35038 35.3864 9.96023C35.1098 10.5663 34.9716 11.3068 34.9716 12.1818C34.9716 13.072 35.1098 13.822 35.3864 14.4318C35.6667 15.0379 36.0492 15.4962 36.5341 15.8068C37.0227 16.1136 37.5814 16.267 38.2102 16.267C38.5587 16.267 38.8845 16.2216 39.1875 16.1307C39.4943 16.036 39.7689 15.8977 40.0114 15.7159C40.2576 15.5341 40.464 15.3106 40.6307 15.0455C40.8011 14.7803 40.9186 14.4773 40.983 14.1364L43.108 14.1477C43.0284 14.7008 42.8561 15.2197 42.5909 15.7045C42.3295 16.1894 41.9867 16.6174 41.5625 16.9886C41.1383 17.3561 40.642 17.6439 40.0739 17.8523C39.5057 18.0568 38.875 18.1591 38.1818 18.1591C37.1591 18.1591 36.2462 17.9223 35.4432 17.4489C34.6402 16.9754 34.0076 16.2917 33.5455 15.3977C33.0833 14.5038 32.8523 13.4318 32.8523 12.1818C32.8523 10.928 33.0852 9.85606 33.5511 8.96591C34.017 8.07197 34.6515 7.38826 35.4545 6.91477C36.2576 6.44129 37.1667 6.20455 38.1818 6.20455C38.8295 6.20455 39.4318 6.29545 39.9886 6.47727C40.5455 6.65909 41.0417 6.92614 41.4773 7.27841C41.9129 7.62689 42.2708 8.05492 42.5511 8.5625C42.8352 9.06629 43.0208 9.64205 43.108 10.2898ZM45.0384 18V6.36364H49.402C50.2959 6.36364 51.0459 6.51894 51.652 6.82955C52.2618 7.14015 52.7221 7.57576 53.0327 8.13636C53.3471 8.69318 53.5043 9.3428 53.5043 10.0852C53.5043 10.8314 53.3452 11.4792 53.027 12.0284C52.7126 12.5739 52.2486 12.9962 51.6349 13.2955C51.0213 13.5909 50.2675 13.7386 49.3736 13.7386H46.2656V11.9886H49.0895C49.6122 11.9886 50.0402 11.9167 50.3736 11.7727C50.7069 11.625 50.9531 11.411 51.1122 11.1307C51.2751 10.8466 51.3565 10.4981 51.3565 10.0852C51.3565 9.67235 51.2751 9.32008 51.1122 9.02841C50.9493 8.73295 50.7012 8.50947 50.3679 8.35795C50.0346 8.20265 49.6046 8.125 49.0781 8.125H47.1463V18H45.0384ZM51.0497 12.7273L53.9304 18H51.5781L48.7486 12.7273H51.0497ZM62.7798 6.36364H64.8878V13.9659C64.8878 14.7992 64.6908 15.5322 64.2969 16.1648C63.9067 16.7973 63.3575 17.2917 62.6491 17.6477C61.9408 18 61.1132 18.1761 60.1662 18.1761C59.2154 18.1761 58.3859 18 57.6776 17.6477C56.9692 17.2917 56.42 16.7973 56.0298 16.1648C55.6397 15.5322 55.4446 14.7992 55.4446 13.9659V6.36364H57.5526V13.7898C57.5526 14.2746 57.6586 14.7064 57.8707 15.0852C58.0866 15.464 58.3897 15.7614 58.7798 15.9773C59.17 16.1894 59.6321 16.2955 60.1662 16.2955C60.7003 16.2955 61.1624 16.1894 61.5526 15.9773C61.9465 15.7614 62.2495 15.464 62.4616 15.0852C62.6738 14.7064 62.7798 14.2746 62.7798 13.7898V6.36364ZM71.1222 18H67.179V6.36364H71.2017C72.357 6.36364 73.3494 6.59659 74.179 7.0625C75.0123 7.52462 75.6525 8.18939 76.0994 9.05682C76.5464 9.92424 76.7699 10.9621 76.7699 12.1705C76.7699 13.3826 76.5445 14.4242 76.0938 15.2955C75.6468 16.1667 75.0009 16.8352 74.1562 17.3011C73.3153 17.767 72.304 18 71.1222 18ZM69.2869 16.1761H71.0199C71.8305 16.1761 72.5066 16.0284 73.0483 15.733C73.59 15.4337 73.9972 14.9886 74.2699 14.3977C74.5426 13.803 74.679 13.0606 74.679 12.1705C74.679 11.2803 74.5426 10.5417 74.2699 9.95455C73.9972 9.36364 73.5938 8.92235 73.0597 8.63068C72.5294 8.33523 71.8703 8.1875 71.0824 8.1875H69.2869V16.1761ZM86.4574 18.1705C85.5862 18.1705 84.8381 17.9792 84.2131 17.5966C83.5919 17.214 83.1127 16.6856 82.7756 16.0114C82.4422 15.3333 82.2756 14.553 82.2756 13.6705C82.2756 12.7841 82.446 12.0019 82.7869 11.3239C83.1278 10.642 83.6089 10.1117 84.2301 9.73295C84.8551 9.35038 85.5938 9.15909 86.446 9.15909C87.1544 9.15909 87.7813 9.28977 88.3267 9.55114C88.8759 9.80871 89.3134 10.1742 89.6392 10.6477C89.965 11.1174 90.1506 11.6667 90.196 12.2955H88.2301C88.1506 11.875 87.9612 11.5246 87.6619 11.2443C87.3665 10.9602 86.9706 10.8182 86.4744 10.8182C86.054 10.8182 85.6847 10.9318 85.3665 11.1591C85.0483 11.3826 84.8002 11.7045 84.6222 12.125C84.4479 12.5455 84.3608 13.0492 84.3608 13.6364C84.3608 14.2311 84.4479 14.7424 84.6222 15.1705C84.7964 15.5947 85.0407 15.9223 85.3551 16.1534C85.6733 16.3807 86.0464 16.4943 86.4744 16.4943C86.7775 16.4943 87.0483 16.4375 87.2869 16.3239C87.5294 16.2064 87.732 16.0379 87.8949 15.8182C88.0578 15.5985 88.1695 15.3314 88.2301 15.017H90.196C90.1468 15.6345 89.965 16.1818 89.6506 16.6591C89.3362 17.1326 88.9081 17.5038 88.3665 17.7727C87.8248 18.0379 87.1884 18.1705 86.4574 18.1705ZM94.3963 18.1761C93.8433 18.1761 93.3452 18.0777 92.902 17.8807C92.4626 17.6799 92.1141 17.3845 91.8565 16.9943C91.6027 16.6042 91.4759 16.1231 91.4759 15.5511C91.4759 15.0587 91.5668 14.6515 91.7486 14.3295C91.9304 14.0076 92.1785 13.75 92.4929 13.5568C92.8073 13.3636 93.1615 13.2178 93.5554 13.1193C93.9531 13.017 94.3641 12.9432 94.7884 12.8977C95.2997 12.8447 95.7145 12.7973 96.0327 12.7557C96.3509 12.7102 96.5819 12.642 96.7259 12.5511C96.8736 12.4564 96.9474 12.3106 96.9474 12.1136V12.0795C96.9474 11.6515 96.8205 11.3201 96.5668 11.0852C96.313 10.8504 95.9474 10.733 95.4702 10.733C94.9664 10.733 94.5668 10.8428 94.2713 11.0625C93.9796 11.2822 93.7827 11.5417 93.6804 11.8409L91.7599 11.5682C91.9115 11.0379 92.1615 10.5947 92.5099 10.2386C92.8584 9.87879 93.2846 9.60985 93.7884 9.43182C94.2921 9.25 94.849 9.15909 95.4588 9.15909C95.8793 9.15909 96.2978 9.20833 96.7145 9.30682C97.1312 9.4053 97.5118 9.56818 97.8565 9.79545C98.2012 10.0189 98.4777 10.3239 98.6861 10.7102C98.8982 11.0966 99.0043 11.5795 99.0043 12.1591V18H97.027V16.8011H96.9588C96.8338 17.0436 96.6577 17.2708 96.4304 17.483C96.2069 17.6913 95.9247 17.8598 95.5838 17.9886C95.2467 18.1136 94.8509 18.1761 94.3963 18.1761ZM94.9304 16.6648C95.3433 16.6648 95.7012 16.5833 96.0043 16.4205C96.3073 16.2538 96.5402 16.0341 96.7031 15.7614C96.8698 15.4886 96.9531 15.1913 96.9531 14.8693V13.8409C96.8887 13.8939 96.7789 13.9432 96.6236 13.9886C96.4721 14.0341 96.3016 14.0739 96.1122 14.108C95.9228 14.142 95.7353 14.1723 95.5497 14.1989C95.3641 14.2254 95.2031 14.2481 95.0668 14.267C94.7599 14.3087 94.4853 14.3769 94.2429 14.4716C94.0005 14.5663 93.8092 14.6989 93.669 14.8693C93.5289 15.036 93.4588 15.2519 93.4588 15.517C93.4588 15.8958 93.5971 16.1818 93.8736 16.375C94.1501 16.5682 94.5024 16.6648 94.9304 16.6648ZM105.43 9.27273V10.8636H100.413V9.27273H105.43ZM101.652 7.18182H103.709V15.375C103.709 15.6515 103.75 15.8636 103.834 16.0114C103.921 16.1553 104.035 16.2538 104.175 16.3068C104.315 16.3598 104.47 16.3864 104.641 16.3864C104.769 16.3864 104.887 16.3769 104.993 16.358C105.103 16.339 105.186 16.322 105.243 16.3068L105.589 17.9148C105.48 17.9527 105.322 17.9943 105.118 18.0398C104.917 18.0852 104.671 18.1117 104.379 18.1193C103.864 18.1345 103.4 18.0568 102.987 17.8864C102.574 17.7121 102.247 17.4432 102.004 17.0795C101.766 16.7159 101.648 16.2614 101.652 15.7159V7.18182ZM113.923 11.5795L112.048 11.7841C111.995 11.5947 111.902 11.4167 111.77 11.25C111.641 11.0833 111.467 10.9489 111.247 10.8466C111.027 10.7443 110.759 10.6932 110.44 10.6932C110.012 10.6932 109.652 10.786 109.361 10.9716C109.073 11.1572 108.931 11.3977 108.935 11.6932C108.931 11.947 109.024 12.1534 109.213 12.3125C109.406 12.4716 109.724 12.6023 110.168 12.7045L111.656 13.0227C112.482 13.2008 113.096 13.483 113.497 13.8693C113.902 14.2557 114.107 14.7614 114.111 15.3864C114.107 15.9356 113.946 16.4205 113.628 16.8409C113.313 17.2576 112.876 17.5833 112.315 17.8182C111.755 18.053 111.111 18.1705 110.384 18.1705C109.315 18.1705 108.455 17.947 107.804 17.5C107.152 17.0492 106.764 16.4223 106.639 15.6193L108.645 15.4261C108.736 15.8201 108.929 16.1174 109.224 16.3182C109.52 16.5189 109.904 16.6193 110.378 16.6193C110.866 16.6193 111.259 16.5189 111.554 16.3182C111.853 16.1174 112.003 15.8693 112.003 15.5739C112.003 15.3239 111.906 15.1174 111.713 14.9545C111.524 14.7917 111.228 14.6667 110.827 14.5795L109.338 14.267C108.501 14.0928 107.882 13.7992 107.48 13.3864C107.079 12.9697 106.88 12.4432 106.884 11.8068C106.88 11.2689 107.026 10.803 107.321 10.4091C107.62 10.0114 108.035 9.70455 108.565 9.48864C109.099 9.26894 109.715 9.15909 110.412 9.15909C111.435 9.15909 112.24 9.37689 112.827 9.8125C113.418 10.2481 113.783 10.8371 113.923 11.5795Z" fill="#2284E6"/>
</svg>
